<svg width="639" height="292" viewBox="0 0 639 292" fill="none" xmlns="http://www.w3.org/2000/svg">
<g opacity="0.66">
<rect x="158.5" y="62.5" width="322" height="168" fill="#F4F4F4" stroke="black"/>
<line x1="228.5" y1="62" x2="228.5" y2="231" stroke="black" stroke-dasharray="5 5"/>
<line x1="228.5" y1="62" x2="228.5" y2="231" stroke="black" stroke-dasharray="5 5"/>
<line x1="411.5" y1="62" x2="411.5" y2="231" stroke="black" stroke-dasharray="5 5"/>
<path d="M130.278 52.6364C130.278 51.5625 130.418 50.5753 130.696 49.6747C130.977 48.7713 131.378 47.9403 131.898 47.1818H132.784C132.58 47.4631 132.388 47.8097 132.209 48.2216C132.033 48.6307 131.878 49.081 131.744 49.5724C131.611 50.0611 131.506 50.5668 131.429 51.0895C131.355 51.6122 131.318 52.1278 131.318 52.6364C131.318 53.3125 131.384 53.9986 131.514 54.6946C131.645 55.3906 131.821 56.0369 132.043 56.6335C132.264 57.2301 132.511 57.7159 132.784 58.0909H131.898C131.378 57.3324 130.977 56.5028 130.696 55.6023C130.418 54.6989 130.278 53.7102 130.278 52.6364ZM137.098 57.1193C136.456 57.1193 135.909 56.9446 135.457 56.5952C135.005 56.2429 134.66 55.733 134.422 55.0653C134.183 54.3949 134.064 53.5852 134.064 52.6364C134.064 51.6932 134.183 50.8878 134.422 50.2202C134.663 49.5497 135.01 49.0384 135.461 48.6861C135.916 48.331 136.461 48.1534 137.098 48.1534C137.734 48.1534 138.278 48.331 138.73 48.6861C139.184 49.0384 139.531 49.5497 139.77 50.2202C140.011 50.8878 140.132 51.6932 140.132 52.6364C140.132 53.5852 140.012 54.3949 139.774 55.0653C139.535 55.733 139.19 56.2429 138.738 56.5952C138.287 56.9446 137.74 57.1193 137.098 57.1193ZM137.098 56.1818C137.734 56.1818 138.228 55.875 138.581 55.2614C138.933 54.6477 139.109 53.7727 139.109 52.6364C139.109 51.8807 139.028 51.2372 138.866 50.706C138.707 50.1747 138.477 49.7699 138.176 49.4915C137.877 49.2131 137.518 49.0739 137.098 49.0739C136.467 49.0739 135.974 49.3849 135.619 50.0071C135.264 50.6264 135.086 51.5028 135.086 52.6364C135.086 53.392 135.166 54.0341 135.325 54.5625C135.484 55.0909 135.713 55.4929 136.011 55.7685C136.312 56.044 136.674 56.1818 137.098 56.1818ZM142.963 55.8068L142.895 56.267C142.847 56.5909 142.773 56.9375 142.674 57.3068C142.577 57.6761 142.476 58.0241 142.371 58.3509C142.266 58.6776 142.179 58.9375 142.111 59.1307H141.344C141.381 58.9489 141.429 58.7088 141.489 58.4105C141.549 58.1122 141.608 57.7784 141.668 57.4091C141.73 57.0426 141.782 56.6676 141.821 56.2841L141.873 55.8068H142.963ZM151.031 57.1193C150.389 57.1193 149.842 56.9446 149.391 56.5952C148.939 56.2429 148.594 55.733 148.355 55.0653C148.116 54.3949 147.997 53.5852 147.997 52.6364C147.997 51.6932 148.116 50.8878 148.355 50.2202C148.597 49.5497 148.943 49.0384 149.395 48.6861C149.849 48.331 150.395 48.1534 151.031 48.1534C151.668 48.1534 152.212 48.331 152.663 48.6861C153.118 49.0384 153.464 49.5497 153.703 50.2202C153.945 50.8878 154.065 51.6932 154.065 52.6364C154.065 53.5852 153.946 54.3949 153.707 55.0653C153.469 55.733 153.124 56.2429 152.672 56.5952C152.22 56.9446 151.673 57.1193 151.031 57.1193ZM151.031 56.1818C151.668 56.1818 152.162 55.875 152.514 55.2614C152.866 54.6477 153.043 53.7727 153.043 52.6364C153.043 51.8807 152.962 51.2372 152.8 50.706C152.641 50.1747 152.411 49.7699 152.109 49.4915C151.811 49.2131 151.452 49.0739 151.031 49.0739C150.401 49.0739 149.908 49.3849 149.553 50.0071C149.197 50.6264 149.02 51.5028 149.02 52.6364C149.02 53.392 149.099 54.0341 149.259 54.5625C149.418 55.0909 149.646 55.4929 149.945 55.7685C150.246 56.044 150.608 56.1818 151.031 56.1818ZM157.849 52.6364C157.849 53.7102 157.709 54.6989 157.428 55.6023C157.149 56.5028 156.75 57.3324 156.23 58.0909H155.344C155.548 57.8097 155.739 57.4631 155.915 57.0511C156.094 56.642 156.25 56.1932 156.384 55.7045C156.517 55.2131 156.621 54.706 156.695 54.1832C156.771 53.6577 156.81 53.142 156.81 52.6364C156.81 51.9602 156.744 51.2741 156.614 50.5781C156.483 49.8821 156.307 49.2358 156.085 48.6392C155.864 48.0426 155.616 47.5568 155.344 47.1818H156.23C156.75 47.9403 157.149 48.7713 157.428 49.6747C157.709 50.5753 157.849 51.5625 157.849 52.6364Z" fill="black"/>
<path d="M130.278 240.636C130.278 239.562 130.418 238.575 130.696 237.675C130.977 236.771 131.378 235.94 131.898 235.182H132.784C132.58 235.463 132.388 235.81 132.209 236.222C132.033 236.631 131.878 237.081 131.744 237.572C131.611 238.061 131.506 238.567 131.429 239.089C131.355 239.612 131.318 240.128 131.318 240.636C131.318 241.312 131.384 241.999 131.514 242.695C131.645 243.391 131.821 244.037 132.043 244.634C132.264 245.23 132.511 245.716 132.784 246.091H131.898C131.378 245.332 130.977 244.503 130.696 243.602C130.418 242.699 130.278 241.71 130.278 240.636ZM137.098 245.119C136.456 245.119 135.909 244.945 135.457 244.595C135.005 244.243 134.66 243.733 134.422 243.065C134.183 242.395 134.064 241.585 134.064 240.636C134.064 239.693 134.183 238.888 134.422 238.22C134.663 237.55 135.01 237.038 135.461 236.686C135.916 236.331 136.461 236.153 137.098 236.153C137.734 236.153 138.278 236.331 138.73 236.686C139.184 237.038 139.531 237.55 139.77 238.22C140.011 238.888 140.132 239.693 140.132 240.636C140.132 241.585 140.012 242.395 139.774 243.065C139.535 243.733 139.19 244.243 138.738 244.595C138.287 244.945 137.74 245.119 137.098 245.119ZM137.098 244.182C137.734 244.182 138.228 243.875 138.581 243.261C138.933 242.648 139.109 241.773 139.109 240.636C139.109 239.881 139.028 239.237 138.866 238.706C138.707 238.175 138.477 237.77 138.176 237.491C137.877 237.213 137.518 237.074 137.098 237.074C136.467 237.074 135.974 237.385 135.619 238.007C135.264 238.626 135.086 239.503 135.086 240.636C135.086 241.392 135.166 242.034 135.325 242.562C135.484 243.091 135.713 243.493 136.011 243.768C136.312 244.044 136.674 244.182 137.098 244.182ZM142.963 243.807L142.895 244.267C142.847 244.591 142.773 244.938 142.674 245.307C142.577 245.676 142.476 246.024 142.371 246.351C142.266 246.678 142.179 246.938 142.111 247.131H141.344C141.381 246.949 141.429 246.709 141.489 246.411C141.549 246.112 141.608 245.778 141.668 245.409C141.73 245.043 141.782 244.668 141.821 244.284L141.873 243.807H142.963ZM151.253 236.273V245H150.196V237.381H150.145L148.014 238.795V237.722L150.196 236.273H151.253ZM155.928 240.636C155.928 241.71 155.787 242.699 155.506 243.602C155.227 244.503 154.828 245.332 154.308 246.091H153.422C153.626 245.81 153.817 245.463 153.993 245.051C154.172 244.642 154.328 244.193 154.462 243.705C154.595 243.213 154.699 242.706 154.773 242.183C154.849 241.658 154.888 241.142 154.888 240.636C154.888 239.96 154.822 239.274 154.692 238.578C154.561 237.882 154.385 237.236 154.163 236.639C153.942 236.043 153.695 235.557 153.422 235.182H154.308C154.828 235.94 155.227 236.771 155.506 237.675C155.787 238.575 155.928 239.562 155.928 240.636Z" fill="black"/>
<path d="M486.278 52.6364C486.278 51.5625 486.418 50.5753 486.696 49.6747C486.977 48.7713 487.378 47.9403 487.898 47.1818H488.784C488.58 47.4631 488.388 47.8097 488.209 48.2216C488.033 48.6307 487.878 49.081 487.744 49.5724C487.611 50.0611 487.506 50.5668 487.429 51.0895C487.355 51.6122 487.318 52.1278 487.318 52.6364C487.318 53.3125 487.384 53.9986 487.514 54.6946C487.645 55.3906 487.821 56.0369 488.043 56.6335C488.264 57.2301 488.511 57.7159 488.784 58.0909H487.898C487.378 57.3324 486.977 56.5028 486.696 55.6023C486.418 54.6989 486.278 53.7102 486.278 52.6364ZM493.319 48.2727V57H492.262V49.3807H492.211L490.081 50.7955V49.7216L492.262 48.2727H493.319ZM496.831 55.8068L496.762 56.267C496.714 56.5909 496.64 56.9375 496.541 57.3068C496.444 57.6761 496.343 58.0241 496.238 58.3509C496.133 58.6776 496.047 58.9375 495.978 59.1307H495.211C495.248 58.9489 495.297 58.7088 495.356 58.4105C495.416 58.1122 495.475 57.7784 495.535 57.4091C495.598 57.0426 495.649 56.6676 495.689 56.2841L495.74 55.8068H496.831ZM504.898 57.1193C504.256 57.1193 503.71 56.9446 503.258 56.5952C502.806 56.2429 502.461 55.733 502.222 55.0653C501.984 54.3949 501.864 53.5852 501.864 52.6364C501.864 51.6932 501.984 50.8878 502.222 50.2202C502.464 49.5497 502.81 49.0384 503.262 48.6861C503.717 48.331 504.262 48.1534 504.898 48.1534C505.535 48.1534 506.079 48.331 506.531 48.6861C506.985 49.0384 507.332 49.5497 507.57 50.2202C507.812 50.8878 507.933 51.6932 507.933 52.6364C507.933 53.5852 507.813 54.3949 507.575 55.0653C507.336 55.733 506.991 56.2429 506.539 56.5952C506.087 56.9446 505.54 57.1193 504.898 57.1193ZM504.898 56.1818C505.535 56.1818 506.029 55.875 506.381 55.2614C506.734 54.6477 506.91 53.7727 506.91 52.6364C506.91 51.8807 506.829 51.2372 506.667 50.706C506.508 50.1747 506.278 49.7699 505.977 49.4915C505.678 49.2131 505.319 49.0739 504.898 49.0739C504.268 49.0739 503.775 49.3849 503.42 50.0071C503.065 50.6264 502.887 51.5028 502.887 52.6364C502.887 53.392 502.967 54.0341 503.126 54.5625C503.285 55.0909 503.513 55.4929 503.812 55.7685C504.113 56.044 504.475 56.1818 504.898 56.1818ZM511.717 52.6364C511.717 53.7102 511.576 54.6989 511.295 55.6023C511.016 56.5028 510.617 57.3324 510.097 58.0909H509.211C509.415 57.8097 509.606 57.4631 509.782 57.0511C509.961 56.642 510.117 56.1932 510.251 55.7045C510.384 55.2131 510.488 54.706 510.562 54.1832C510.638 53.6577 510.677 53.142 510.677 52.6364C510.677 51.9602 510.612 51.2741 510.481 50.5781C510.35 49.8821 510.174 49.2358 509.952 48.6392C509.731 48.0426 509.484 47.5568 509.211 47.1818H510.097C510.617 47.9403 511.016 48.7713 511.295 49.6747C511.576 50.5753 511.717 51.5625 511.717 52.6364Z" fill="black"/>
<path d="M487.278 239.636C487.278 238.562 487.418 237.575 487.696 236.675C487.977 235.771 488.378 234.94 488.898 234.182H489.784C489.58 234.463 489.388 234.81 489.209 235.222C489.033 235.631 488.878 236.081 488.744 236.572C488.611 237.061 488.506 237.567 488.429 238.089C488.355 238.612 488.318 239.128 488.318 239.636C488.318 240.312 488.384 240.999 488.514 241.695C488.645 242.391 488.821 243.037 489.043 243.634C489.264 244.23 489.511 244.716 489.784 245.091H488.898C488.378 244.332 487.977 243.503 487.696 242.602C487.418 241.699 487.278 240.71 487.278 239.636ZM494.319 235.273V244H493.262V236.381H493.211L491.081 237.795V236.722L493.262 235.273H494.319ZM497.831 242.807L497.762 243.267C497.714 243.591 497.64 243.938 497.541 244.307C497.444 244.676 497.343 245.024 497.238 245.351C497.133 245.678 497.047 245.938 496.978 246.131H496.211C496.248 245.949 496.297 245.709 496.356 245.411C496.416 245.112 496.475 244.778 496.535 244.409C496.598 244.043 496.649 243.668 496.689 243.284L496.74 242.807H497.831ZM506.12 235.273V244H505.063V236.381H505.012L502.881 237.795V236.722L505.063 235.273H506.12ZM510.795 239.636C510.795 240.71 510.654 241.699 510.373 242.602C510.094 243.503 509.695 244.332 509.175 245.091H508.289C508.494 244.81 508.684 244.463 508.86 244.051C509.039 243.642 509.195 243.193 509.329 242.705C509.462 242.213 509.566 241.706 509.64 241.183C509.717 240.658 509.755 240.142 509.755 239.636C509.755 238.96 509.69 238.274 509.559 237.578C509.428 236.882 509.252 236.236 509.031 235.639C508.809 235.043 508.562 234.557 508.289 234.182H509.175C509.695 234.94 510.094 235.771 510.373 236.675C510.654 237.575 510.795 238.562 510.795 239.636Z" fill="black"/>
<path d="M157.293 144.793C156.902 145.183 156.902 145.817 157.293 146.207L163.657 152.571C164.047 152.962 164.681 152.962 165.071 152.571C165.462 152.181 165.462 151.547 165.071 151.157L159.414 145.5L165.071 139.843C165.462 139.453 165.462 138.819 165.071 138.429C164.681 138.038 164.047 138.038 163.657 138.429L157.293 144.793ZM228.707 146.207C229.098 145.817 229.098 145.183 228.707 144.793L222.343 138.429C221.953 138.038 221.319 138.038 220.929 138.429C220.538 138.819 220.538 139.453 220.929 139.843L226.586 145.5L220.929 151.157C220.538 151.547 220.538 152.181 220.929 152.571C221.319 152.962 221.953 152.962 222.343 152.571L228.707 146.207ZM158 146.5H228V144.5H158V146.5Z" fill="#FF0000"/>
<path d="M168.016 134L166.234 127.455H168.071L169.085 131.852H169.145L170.202 127.455H172.004L173.078 131.827H173.134L174.131 127.455H175.963L174.186 134H172.264L171.139 129.884H171.058L169.933 134H168.016ZM176.931 134V127.455H178.747V134H176.931ZM177.843 126.611C177.574 126.611 177.342 126.521 177.149 126.342C176.958 126.161 176.863 125.943 176.863 125.69C176.863 125.44 176.958 125.226 177.149 125.047C177.342 124.865 177.574 124.774 177.843 124.774C178.113 124.774 178.343 124.865 178.534 125.047C178.727 125.226 178.824 125.44 178.824 125.69C178.824 125.943 178.727 126.161 178.534 126.342C178.343 126.521 178.113 126.611 177.843 126.611ZM182.613 134.107C182.116 134.107 181.665 133.979 181.262 133.723C180.862 133.464 180.543 133.085 180.308 132.585C180.075 132.082 179.958 131.466 179.958 130.736C179.958 129.986 180.079 129.362 180.32 128.865C180.562 128.365 180.883 127.991 181.283 127.744C181.687 127.494 182.129 127.369 182.609 127.369C182.975 127.369 183.281 127.432 183.525 127.557C183.772 127.679 183.971 127.832 184.121 128.017C184.275 128.199 184.391 128.378 184.471 128.554H184.526V125.273H186.337V134H184.548V132.952H184.471C184.386 133.134 184.265 133.314 184.109 133.493C183.955 133.669 183.755 133.815 183.508 133.932C183.263 134.048 182.965 134.107 182.613 134.107ZM183.188 132.662C183.481 132.662 183.728 132.582 183.93 132.423C184.134 132.261 184.29 132.036 184.398 131.746C184.509 131.456 184.565 131.116 184.565 130.727C184.565 130.338 184.511 130 184.403 129.713C184.295 129.426 184.138 129.205 183.934 129.048C183.729 128.892 183.481 128.814 183.188 128.814C182.89 128.814 182.638 128.895 182.434 129.057C182.229 129.219 182.075 129.443 181.969 129.73C181.864 130.017 181.812 130.349 181.812 130.727C181.812 131.108 181.864 131.445 181.969 131.737C182.077 132.027 182.232 132.254 182.434 132.419C182.638 132.581 182.89 132.662 183.188 132.662ZM191.311 127.455V128.818H187.37V127.455H191.311ZM188.265 125.886H190.08V131.989C190.08 132.156 190.105 132.287 190.157 132.381C190.208 132.472 190.279 132.536 190.37 132.572C190.463 132.609 190.571 132.628 190.694 132.628C190.779 132.628 190.864 132.621 190.949 132.607C191.034 132.589 191.1 132.577 191.145 132.568L191.431 133.919C191.34 133.947 191.212 133.98 191.047 134.017C190.882 134.057 190.682 134.081 190.446 134.089C190.009 134.107 189.625 134.048 189.296 133.915C188.969 133.781 188.715 133.574 188.533 133.293C188.351 133.011 188.262 132.656 188.265 132.227V125.886ZM194.45 130.216V134H192.635V125.273H194.399V128.609H194.475C194.623 128.223 194.862 127.92 195.191 127.702C195.521 127.48 195.934 127.369 196.431 127.369C196.886 127.369 197.282 127.469 197.62 127.668C197.961 127.864 198.225 128.146 198.413 128.516C198.603 128.882 198.697 129.321 198.694 129.832V134H196.879V130.156C196.882 129.753 196.779 129.439 196.572 129.214C196.368 128.99 196.081 128.878 195.711 128.878C195.464 128.878 195.245 128.93 195.055 129.036C194.868 129.141 194.72 129.294 194.612 129.496C194.507 129.695 194.453 129.935 194.45 130.216ZM205.858 134.128C205.187 134.128 204.61 133.986 204.127 133.702C203.647 133.415 203.278 133.017 203.02 132.509C202.764 132 202.636 131.415 202.636 130.753C202.636 130.082 202.765 129.494 203.024 128.989C203.285 128.48 203.656 128.084 204.136 127.8C204.616 127.513 205.187 127.369 205.849 127.369C206.42 127.369 206.92 127.473 207.349 127.68C207.778 127.888 208.118 128.179 208.368 128.554C208.618 128.929 208.755 129.369 208.781 129.875H207.068C207.02 129.548 206.892 129.286 206.684 129.087C206.48 128.885 206.211 128.784 205.879 128.784C205.598 128.784 205.352 128.861 205.142 129.014C204.934 129.165 204.772 129.385 204.656 129.675C204.539 129.964 204.481 130.315 204.481 130.727C204.481 131.145 204.538 131.5 204.652 131.793C204.768 132.085 204.931 132.308 205.142 132.462C205.352 132.615 205.598 132.692 205.879 132.692C206.086 132.692 206.272 132.649 206.437 132.564C206.605 132.479 206.743 132.355 206.85 132.193C206.961 132.028 207.034 131.831 207.068 131.601H208.781C208.752 132.101 208.616 132.541 208.372 132.922C208.13 133.3 207.797 133.595 207.37 133.808C206.944 134.021 206.44 134.128 205.858 134.128ZM211.759 125.273V134H209.943V125.273H211.759ZM215.079 134.124C214.662 134.124 214.289 134.051 213.963 133.906C213.636 133.759 213.377 133.541 213.187 133.254C213 132.964 212.906 132.604 212.906 132.172C212.906 131.808 212.973 131.503 213.106 131.256C213.24 131.009 213.422 130.81 213.652 130.659C213.882 130.509 214.143 130.395 214.436 130.318C214.731 130.241 215.041 130.188 215.365 130.156C215.745 130.116 216.052 130.08 216.285 130.045C216.518 130.009 216.687 129.955 216.792 129.884C216.897 129.812 216.95 129.707 216.95 129.568V129.543C216.95 129.273 216.865 129.064 216.694 128.916C216.527 128.768 216.288 128.695 215.978 128.695C215.652 128.695 215.392 128.767 215.199 128.912C215.005 129.054 214.877 129.233 214.815 129.449L213.136 129.312C213.221 128.915 213.389 128.571 213.639 128.281C213.889 127.989 214.211 127.764 214.606 127.608C215.004 127.449 215.464 127.369 215.987 127.369C216.35 127.369 216.699 127.412 217.031 127.497C217.366 127.582 217.663 127.714 217.922 127.893C218.183 128.072 218.389 128.303 218.539 128.584C218.69 128.862 218.765 129.196 218.765 129.585V134H217.044V133.092H216.993C216.887 133.297 216.747 133.477 216.571 133.634C216.395 133.787 216.183 133.908 215.936 133.996C215.689 134.081 215.403 134.124 215.079 134.124ZM215.599 132.871C215.866 132.871 216.102 132.818 216.306 132.713C216.511 132.605 216.672 132.46 216.788 132.278C216.904 132.097 216.963 131.891 216.963 131.661V130.966C216.906 131.003 216.828 131.037 216.728 131.068C216.632 131.097 216.522 131.124 216.4 131.149C216.278 131.172 216.156 131.193 216.034 131.213C215.912 131.23 215.801 131.246 215.701 131.26C215.488 131.291 215.302 131.341 215.143 131.409C214.984 131.477 214.86 131.57 214.772 131.686C214.684 131.8 214.64 131.942 214.64 132.112C214.64 132.359 214.73 132.548 214.909 132.679C215.091 132.807 215.321 132.871 215.599 132.871ZM220.174 134V127.455H221.904V128.609H221.98C222.117 128.226 222.344 127.923 222.662 127.702C222.98 127.48 223.361 127.369 223.804 127.369C224.253 127.369 224.635 127.482 224.951 127.706C225.266 127.928 225.476 128.229 225.581 128.609H225.65C225.783 128.234 226.025 127.935 226.374 127.71C226.726 127.483 227.142 127.369 227.623 127.369C228.233 127.369 228.729 127.564 229.11 127.953C229.493 128.339 229.685 128.888 229.685 129.598V134H227.874V129.956C227.874 129.592 227.777 129.32 227.584 129.138C227.391 128.956 227.15 128.865 226.86 128.865C226.53 128.865 226.273 128.97 226.088 129.18C225.904 129.388 225.811 129.662 225.811 130.003V134H224.051V129.918C224.051 129.597 223.959 129.341 223.775 129.151C223.593 128.96 223.353 128.865 223.054 128.865C222.853 128.865 222.671 128.916 222.509 129.018C222.35 129.118 222.223 129.259 222.13 129.44C222.036 129.619 221.989 129.83 221.989 130.071V134H220.174ZM231.119 136.455V127.455H232.909V128.554H232.99C233.069 128.378 233.184 128.199 233.335 128.017C233.488 127.832 233.687 127.679 233.931 127.557C234.179 127.432 234.485 127.369 234.852 127.369C235.329 127.369 235.77 127.494 236.173 127.744C236.576 127.991 236.899 128.365 237.14 128.865C237.382 129.362 237.502 129.986 237.502 130.736C237.502 131.466 237.385 132.082 237.149 132.585C236.916 133.085 236.598 133.464 236.194 133.723C235.794 133.979 235.345 134.107 234.848 134.107C234.495 134.107 234.196 134.048 233.949 133.932C233.704 133.815 233.504 133.669 233.348 133.493C233.191 133.314 233.072 133.134 232.99 132.952H232.934V136.455H231.119ZM232.896 130.727C232.896 131.116 232.95 131.456 233.058 131.746C233.166 132.036 233.322 132.261 233.527 132.423C233.731 132.582 233.98 132.662 234.272 132.662C234.568 132.662 234.818 132.581 235.022 132.419C235.227 132.254 235.382 132.027 235.487 131.737C235.595 131.445 235.649 131.108 235.649 130.727C235.649 130.349 235.596 130.017 235.491 129.73C235.386 129.443 235.231 129.219 235.027 129.057C234.822 128.895 234.571 128.814 234.272 128.814C233.977 128.814 233.727 128.892 233.522 129.048C233.321 129.205 233.166 129.426 233.058 129.713C232.95 130 232.896 130.338 232.896 130.727ZM238.713 134V127.455H240.528V134H238.713ZM239.625 126.611C239.355 126.611 239.123 126.521 238.93 126.342C238.74 126.161 238.645 125.943 238.645 125.69C238.645 125.44 238.74 125.226 238.93 125.047C239.123 124.865 239.355 124.774 239.625 124.774C239.895 124.774 240.125 124.865 240.315 125.047C240.508 125.226 240.605 125.44 240.605 125.69C240.605 125.943 240.508 126.161 240.315 126.342C240.125 126.521 239.895 126.611 239.625 126.611ZM243.798 130.216V134H241.982V127.455H243.712V128.609H243.789C243.934 128.229 244.177 127.928 244.518 127.706C244.859 127.482 245.272 127.369 245.758 127.369C246.212 127.369 246.609 127.469 246.947 127.668C247.285 127.866 247.548 128.151 247.735 128.52C247.923 128.886 248.016 129.324 248.016 129.832V134H246.201V130.156C246.204 129.756 246.102 129.443 245.894 129.219C245.687 128.991 245.401 128.878 245.038 128.878C244.793 128.878 244.577 128.93 244.39 129.036C244.205 129.141 244.06 129.294 243.955 129.496C243.853 129.695 243.8 129.935 243.798 130.216ZM252.396 136.591C251.808 136.591 251.304 136.51 250.883 136.348C250.466 136.189 250.133 135.972 249.886 135.696C249.639 135.42 249.478 135.111 249.404 134.767L251.083 134.541C251.135 134.672 251.216 134.794 251.326 134.908C251.437 135.021 251.583 135.112 251.765 135.18C251.95 135.251 252.174 135.287 252.439 135.287C252.833 135.287 253.159 135.19 253.414 134.997C253.673 134.807 253.802 134.487 253.802 134.038V132.841H253.725C253.646 133.023 253.527 133.195 253.368 133.357C253.208 133.518 253.004 133.651 252.754 133.753C252.504 133.855 252.206 133.906 251.859 133.906C251.368 133.906 250.92 133.793 250.517 133.565C250.116 133.335 249.797 132.984 249.558 132.513C249.322 132.038 249.204 131.439 249.204 130.714C249.204 129.973 249.325 129.354 249.566 128.857C249.808 128.359 250.129 127.987 250.529 127.74C250.933 127.493 251.375 127.369 251.855 127.369C252.221 127.369 252.528 127.432 252.775 127.557C253.022 127.679 253.221 127.832 253.372 128.017C253.525 128.199 253.643 128.378 253.725 128.554H253.794V127.455H255.596V134.064C255.596 134.621 255.46 135.087 255.187 135.462C254.914 135.837 254.537 136.118 254.054 136.305C253.574 136.496 253.021 136.591 252.396 136.591ZM252.434 132.543C252.727 132.543 252.974 132.47 253.176 132.325C253.38 132.178 253.537 131.967 253.645 131.695C253.755 131.419 253.811 131.089 253.811 130.706C253.811 130.322 253.757 129.99 253.649 129.709C253.541 129.425 253.385 129.205 253.18 129.048C252.975 128.892 252.727 128.814 252.434 128.814C252.136 128.814 251.885 128.895 251.68 129.057C251.475 129.216 251.321 129.437 251.216 129.722C251.11 130.006 251.058 130.334 251.058 130.706C251.058 131.084 251.11 131.411 251.216 131.686C251.324 131.959 251.478 132.17 251.68 132.321C251.885 132.469 252.136 132.543 252.434 132.543Z" fill="#FF0000"/>
<path d="M274.163 56V44.3636H278.618C279.459 44.3636 280.158 44.4962 280.714 44.7614C281.275 45.0227 281.694 45.3807 281.97 45.8352C282.25 46.2898 282.391 46.8049 282.391 47.3807C282.391 47.8542 282.3 48.2595 282.118 48.5966C281.936 48.9299 281.692 49.2008 281.385 49.4091C281.078 49.6174 280.735 49.767 280.357 49.858V49.9716C280.769 49.9943 281.165 50.1212 281.544 50.3523C281.927 50.5795 282.239 50.9015 282.482 51.3182C282.724 51.7348 282.845 52.2386 282.845 52.8295C282.845 53.4318 282.699 53.9735 282.408 54.4545C282.116 54.9318 281.677 55.3087 281.089 55.5852C280.502 55.8617 279.764 56 278.874 56H274.163ZM276.271 54.2386H278.538C279.304 54.2386 279.855 54.0928 280.192 53.8011C280.533 53.5057 280.703 53.1269 280.703 52.6648C280.703 52.3201 280.618 52.0095 280.447 51.733C280.277 51.4527 280.035 51.233 279.72 51.0739C279.406 50.911 279.031 50.8295 278.595 50.8295H276.271V54.2386ZM276.271 49.3125H278.357C278.72 49.3125 279.048 49.2462 279.339 49.1136C279.631 48.9773 279.86 48.786 280.027 48.5398C280.197 48.2898 280.283 47.9943 280.283 47.6534C280.283 47.2027 280.124 46.8314 279.805 46.5398C279.491 46.2481 279.023 46.1023 278.402 46.1023H276.271V49.3125ZM287.099 56.1761C286.546 56.1761 286.048 56.0777 285.605 55.8807C285.166 55.6799 284.817 55.3845 284.56 54.9943C284.306 54.6042 284.179 54.1231 284.179 53.5511C284.179 53.0587 284.27 52.6515 284.452 52.3295C284.634 52.0076 284.882 51.75 285.196 51.5568C285.51 51.3636 285.865 51.2178 286.259 51.1193C286.656 51.017 287.067 50.9432 287.491 50.8977C288.003 50.8447 288.418 50.7973 288.736 50.7557C289.054 50.7102 289.285 50.642 289.429 50.5511C289.577 50.4564 289.651 50.3106 289.651 50.1136V50.0795C289.651 49.6515 289.524 49.3201 289.27 49.0852C289.016 48.8504 288.651 48.733 288.173 48.733C287.67 48.733 287.27 48.8428 286.974 49.0625C286.683 49.2822 286.486 49.5417 286.384 49.8409L284.463 49.5682C284.615 49.0379 284.865 48.5947 285.213 48.2386C285.562 47.8788 285.988 47.6098 286.491 47.4318C286.995 47.25 287.552 47.1591 288.162 47.1591C288.582 47.1591 289.001 47.2083 289.418 47.3068C289.834 47.4053 290.215 47.5682 290.56 47.7955C290.904 48.0189 291.181 48.3239 291.389 48.7102C291.601 49.0966 291.707 49.5795 291.707 50.1591V56H289.73V54.8011H289.662C289.537 55.0436 289.361 55.2708 289.134 55.483C288.91 55.6913 288.628 55.8598 288.287 55.9886C287.95 56.1136 287.554 56.1761 287.099 56.1761ZM287.634 54.6648C288.046 54.6648 288.404 54.5833 288.707 54.4205C289.01 54.2538 289.243 54.0341 289.406 53.7614C289.573 53.4886 289.656 53.1913 289.656 52.8693V51.8409C289.592 51.8939 289.482 51.9432 289.327 51.9886C289.175 52.0341 289.005 52.0739 288.815 52.108C288.626 52.142 288.438 52.1723 288.253 52.1989C288.067 52.2254 287.906 52.2481 287.77 52.267C287.463 52.3087 287.188 52.3769 286.946 52.4716C286.704 52.5663 286.512 52.6989 286.372 52.8693C286.232 53.036 286.162 53.2519 286.162 53.517C286.162 53.8958 286.3 54.1818 286.577 54.375C286.853 54.5682 287.205 54.6648 287.634 54.6648ZM297.582 56.1705C296.711 56.1705 295.963 55.9792 295.338 55.5966C294.717 55.214 294.238 54.6856 293.901 54.0114C293.567 53.3333 293.401 52.553 293.401 51.6705C293.401 50.7841 293.571 50.0019 293.912 49.3239C294.253 48.642 294.734 48.1117 295.355 47.733C295.98 47.3504 296.719 47.1591 297.571 47.1591C298.279 47.1591 298.906 47.2898 299.452 47.5511C300.001 47.8087 300.438 48.1742 300.764 48.6477C301.09 49.1174 301.276 49.6667 301.321 50.2955H299.355C299.276 49.875 299.086 49.5246 298.787 49.2443C298.491 48.9602 298.096 48.8182 297.599 48.8182C297.179 48.8182 296.81 48.9318 296.491 49.1591C296.173 49.3826 295.925 49.7045 295.747 50.125C295.573 50.5455 295.486 51.0492 295.486 51.6364C295.486 52.2311 295.573 52.7424 295.747 53.1705C295.921 53.5947 296.166 53.9223 296.48 54.1534C296.798 54.3807 297.171 54.4943 297.599 54.4943C297.902 54.4943 298.173 54.4375 298.412 54.3239C298.654 54.2064 298.857 54.0379 299.02 53.8182C299.183 53.5985 299.295 53.3314 299.355 53.017H301.321C301.272 53.6345 301.09 54.1818 300.776 54.6591C300.461 55.1326 300.033 55.5038 299.491 55.7727C298.95 56.0379 298.313 56.1705 297.582 56.1705ZM304.885 53.2614L304.879 50.7784H305.209L308.345 47.2727H310.749L306.891 51.5682H306.464L304.885 53.2614ZM303.01 56V44.3636H305.067V56H303.01ZM308.487 56L305.646 52.0284L307.033 50.5795L310.947 56H308.487ZM315.555 59.4545C314.817 59.4545 314.182 59.3542 313.652 59.1534C313.122 58.9564 312.696 58.6913 312.374 58.358C312.052 58.0246 311.828 57.6553 311.703 57.25L313.555 56.8011C313.639 56.9716 313.76 57.1402 313.919 57.3068C314.078 57.4773 314.292 57.6174 314.561 57.7273C314.834 57.8409 315.177 57.8977 315.589 57.8977C316.173 57.8977 316.656 57.7557 317.038 57.4716C317.421 57.1913 317.612 56.7292 317.612 56.0852V54.4318H317.51C317.404 54.6439 317.249 54.8617 317.044 55.0852C316.843 55.3087 316.576 55.4962 316.243 55.6477C315.913 55.7992 315.499 55.875 314.999 55.875C314.328 55.875 313.72 55.7178 313.175 55.4034C312.633 55.0852 312.201 54.6117 311.879 53.983C311.561 53.3504 311.402 52.5587 311.402 51.608C311.402 50.6496 311.561 49.8409 311.879 49.1818C312.201 48.5189 312.635 48.017 313.18 47.6761C313.726 47.3314 314.334 47.1591 315.004 47.1591C315.516 47.1591 315.936 47.2462 316.266 47.4205C316.599 47.5909 316.864 47.7973 317.061 48.0398C317.258 48.2784 317.408 48.5038 317.51 48.7159H317.624V47.2727H319.652V56.142C319.652 56.8883 319.474 57.5057 319.118 57.9943C318.762 58.483 318.275 58.8485 317.658 59.0909C317.04 59.3333 316.339 59.4545 315.555 59.4545ZM315.572 54.2614C316.008 54.2614 316.379 54.1553 316.686 53.9432C316.993 53.7311 317.226 53.4261 317.385 53.0284C317.544 52.6307 317.624 52.1534 317.624 51.5966C317.624 51.0473 317.544 50.5663 317.385 50.1534C317.23 49.7405 316.999 49.4205 316.692 49.1932C316.389 48.9621 316.016 48.8466 315.572 48.8466C315.114 48.8466 314.732 48.9659 314.425 49.2045C314.118 49.4432 313.887 49.7708 313.732 50.1875C313.576 50.6004 313.499 51.0701 313.499 51.5966C313.499 52.1307 313.576 52.5985 313.732 53C313.891 53.3977 314.124 53.7083 314.43 53.9318C314.741 54.1515 315.122 54.2614 315.572 54.2614ZM321.76 56V47.2727H323.754V48.7273H323.845C324.004 48.2235 324.277 47.8352 324.663 47.5625C325.054 47.286 325.499 47.1477 325.999 47.1477C326.112 47.1477 326.239 47.1534 326.379 47.1648C326.523 47.1723 326.643 47.1856 326.737 47.2045V49.0966C326.65 49.0663 326.512 49.0398 326.322 49.017C326.137 48.9905 325.957 48.9773 325.783 48.9773C325.408 48.9773 325.071 49.0587 324.771 49.2216C324.476 49.3807 324.243 49.6023 324.072 49.8864C323.902 50.1705 323.817 50.4981 323.817 50.8693V56H321.76ZM331.551 56.1705C330.699 56.1705 329.96 55.983 329.335 55.608C328.71 55.233 328.225 54.7083 327.881 54.0341C327.54 53.3598 327.369 52.572 327.369 51.6705C327.369 50.7689 327.54 49.9792 327.881 49.3011C328.225 48.6231 328.71 48.0966 329.335 47.7216C329.96 47.3466 330.699 47.1591 331.551 47.1591C332.403 47.1591 333.142 47.3466 333.767 47.7216C334.392 48.0966 334.875 48.6231 335.216 49.3011C335.561 49.9792 335.733 50.7689 335.733 51.6705C335.733 52.572 335.561 53.3598 335.216 54.0341C334.875 54.7083 334.392 55.233 333.767 55.608C333.142 55.983 332.403 56.1705 331.551 56.1705ZM331.562 54.5227C332.025 54.5227 332.411 54.3958 332.722 54.142C333.032 53.8845 333.263 53.5398 333.415 53.108C333.57 52.6761 333.648 52.1951 333.648 51.6648C333.648 51.1307 333.57 50.6477 333.415 50.2159C333.263 49.7803 333.032 49.4337 332.722 49.1761C332.411 48.9186 332.025 48.7898 331.562 48.7898C331.089 48.7898 330.695 48.9186 330.381 49.1761C330.07 49.4337 329.837 49.7803 329.682 50.2159C329.53 50.6477 329.455 51.1307 329.455 51.6648C329.455 52.1951 329.53 52.6761 329.682 53.108C329.837 53.5398 330.07 53.8845 330.381 54.142C330.695 54.3958 331.089 54.5227 331.562 54.5227ZM343.041 52.3295V47.2727H345.098V56H343.104V54.4489H343.013C342.816 54.9375 342.492 55.3371 342.041 55.6477C341.594 55.9583 341.043 56.1136 340.388 56.1136C339.816 56.1136 339.31 55.9867 338.871 55.733C338.435 55.4754 338.094 55.1023 337.848 54.6136C337.602 54.1212 337.479 53.5265 337.479 52.8295V47.2727H339.536V52.5114C339.536 53.0644 339.687 53.5038 339.99 53.8295C340.293 54.1553 340.691 54.3182 341.183 54.3182C341.486 54.3182 341.78 54.2443 342.064 54.0966C342.348 53.9489 342.581 53.7292 342.763 53.4375C342.948 53.142 343.041 52.7727 343.041 52.3295ZM349.27 50.8864V56H347.213V47.2727H349.179V48.7557H349.281C349.482 48.267 349.802 47.8788 350.241 47.5909C350.685 47.303 351.232 47.1591 351.884 47.1591C352.486 47.1591 353.01 47.2879 353.457 47.5455C353.908 47.803 354.257 48.1761 354.503 48.6648C354.753 49.1534 354.876 49.7462 354.872 50.4432V56H352.815V50.7614C352.815 50.178 352.664 49.7216 352.361 49.392C352.062 49.0625 351.647 48.8977 351.116 48.8977C350.757 48.8977 350.437 48.9773 350.156 49.1364C349.88 49.2917 349.662 49.517 349.503 49.8125C349.348 50.108 349.27 50.4659 349.27 50.8864ZM360.202 56.1534C359.516 56.1534 358.902 55.9773 358.361 55.625C357.819 55.2727 357.391 54.7614 357.077 54.0909C356.762 53.4205 356.605 52.6061 356.605 51.6477C356.605 50.678 356.764 49.8598 357.082 49.1932C357.404 48.5227 357.838 48.017 358.384 47.6761C358.929 47.3314 359.537 47.1591 360.207 47.1591C360.719 47.1591 361.139 47.2462 361.469 47.4205C361.798 47.5909 362.06 47.7973 362.253 48.0398C362.446 48.2784 362.596 48.5038 362.702 48.7159H362.787V44.3636H364.849V56H362.827V54.625H362.702C362.596 54.8371 362.442 55.0625 362.241 55.3011C362.041 55.536 361.776 55.7367 361.446 55.9034C361.116 56.0701 360.702 56.1534 360.202 56.1534ZM360.776 54.4659C361.211 54.4659 361.582 54.3485 361.889 54.1136C362.196 53.875 362.429 53.5436 362.588 53.1193C362.747 52.6951 362.827 52.2008 362.827 51.6364C362.827 51.072 362.747 50.5814 362.588 50.1648C362.433 49.7481 362.202 49.4242 361.895 49.1932C361.592 48.9621 361.219 48.8466 360.776 48.8466C360.317 48.8466 359.935 48.9659 359.628 49.2045C359.321 49.4432 359.09 49.7727 358.935 50.1932C358.779 50.6136 358.702 51.0947 358.702 51.6364C358.702 52.1818 358.779 52.6686 358.935 53.0966C359.094 53.5208 359.327 53.8561 359.634 54.1023C359.944 54.3447 360.325 54.4659 360.776 54.4659Z" fill="black"/>
</g>
</svg>
